<svg xmlns="http://www.w3.org/2000/svg" width="28" height="20" viewBox="0 0 28 20">
    <g fill="#83CAFF" fill-rule="nonzero">
        <path d="M27.476 1.256A2.16 2.16 0 0 0 25.6.2H2.356a2.16 2.16 0 0 0-1.86 1.052A2.176 2.176 0 0 0 .18 2.376v15.28a.8.8 0 0 0 .06.304.8.8 0 0 0 .024.276 2.18 2.18 0 0 0 2.092 1.6H25.6a2.18 2.18 0 0 0 2.092-1.6 2.16 2.16 0 0 0 .084-.58V2.376c.004-.394-.1-.78-.3-1.12zM25.6 18.232H2.356a.576.576 0 0 1-.552-.424.8.8 0 0 0-.032-.084V2.376a.592.592 0 0 1 .576-.576H25.6c.203 0 .39.109.492.284a.564.564 0 0 1 .088.296v15.28a.596.596 0 0 1-.028.152.576.576 0 0 1-.552.42z"/>
        <path d="M19.524 9.476L24.86 4.54a.8.8 0 0 0-1.084-1.176L17.2 9.428 14 12.4l-3.844-3.552-6-5.496a.807.807 0 1 0-1.08 1.2l5.4 4.932-5.76 5.716a.8.8 0 1 0 1.132 1.132l5.776-5.772 3.82 3.528a.8.8 0 0 0 1.084 0l3.816-3.528 5.78 5.776a.802.802 0 0 0 1.132-1.136l-5.732-5.724z"/>
    </g>
</svg>
