<svg xmlns="http://www.w3.org/2000/svg" xmlns:xlink="http://www.w3.org/1999/xlink" width="293" height="281" viewBox="0 0 293 281">
    <defs>
        <linearGradient id="a" x1="77.913%" x2="43.621%" y1="26.356%" y2="100%">
            <stop offset="0%" stop-color="#5CBBFF"/>
            <stop offset="100%" stop-color="#FFF"/>
        </linearGradient>
        <linearGradient id="b" x1="77.913%" x2="43.621%" y1="26.356%" y2="100%">
            <stop offset="0%" stop-color="#179DFC"/>
            <stop offset="100%" stop-color="#FFF"/>
        </linearGradient>
        <linearGradient id="c" x1="0%" y1="46.072%" y2="46.072%">
            <stop offset="0%" stop-color="#015EC2"/>
            <stop offset="56.5%" stop-color="#0185DC"/>
            <stop offset="100%" stop-color="#019DEC"/>
        </linearGradient>
        <linearGradient id="f" x1="100%" x2="0%" y1="50%" y2="50%">
            <stop offset="0%" stop-color="#16DE99"/>
            <stop offset="100%" stop-color="#00C8CE"/>
        </linearGradient>
        <path id="e" d="M113.586 130.814c13.12-4.09 23.754-20.889 23.754-37.522s-10.635-26.801-23.754-22.711c-13.119 4.09-23.754 20.888-23.754 37.522 0 16.633 10.635 26.801 23.754 22.711z"/>
        <filter id="d" width="201%" height="177.4%" x="-63.1%" y="-33.8%" filterUnits="objectBoundingBox">
            <feOffset dx="-6" dy="3" in="SourceAlpha" result="shadowOffsetOuter1"/>
            <feGaussianBlur in="shadowOffsetOuter1" result="shadowBlurOuter1" stdDeviation="7"/>
            <feColorMatrix in="shadowBlurOuter1" values="0 0 0 0 0 0 0 0 0 0 0 0 0 0 0 0 0 0 0.0524796196 0"/>
        </filter>
    </defs>
    <g fill="none" fill-rule="evenodd">
        <path fill="#E6F5FF" d="M286.202 182.886c9.064 5.456 9.064 14.381 0 19.837l-123.225 74.165c-9.064 5.452-23.894 5.452-32.958 0L6.798 202.723c-9.064-5.456-9.064-14.38 0-19.837l123.221-74.165c9.064-5.456 23.894-5.456 32.958 0l123.225 74.165z"/>
        <path fill="url(#a)" d="M93.718.28L.031 54.443 0 221.406l93.718-54.181z" transform="translate(82)"/>
        <path fill="url(#b)" d="M106.675 10.645L12.988 64.808l-.031 166.963 93.718-54.181z" transform="translate(82)"/>
        <path fill="url(#c)" d="M120.495 21.874L26.808 76.037 26.777 243l93.718-54.181z" transform="translate(82)"/>
        <g fill="#FFF" opacity=".242">
            <path d="M117 84.963L197.695 38v2.203L117 87.166zM117 97.039l80.695-46.963v2.203L117 99.242zM117 109.115l80.695-46.963v2.203L117 111.318zM117 121.19l80.695-46.963v2.203L117 123.393zM117 133.266l80.695-46.963v2.203L117 135.47zM117 145.342l80.695-46.963v2.203L117 147.545zM117 157.418l80.695-46.963v2.203L117 159.62zM117 169.494l80.695-46.963v2.203L117 171.697zM117 181.57l80.695-46.963v2.203L117 183.773zM117 193.645l80.695-46.963v2.203L117 195.848zM117 205.721l80.695-46.963v2.203L117 207.924zM117 217.797l35.334-20.564v2.204L117 220z" opacity=".349"/>
        </g>
        <g transform="translate(82)">
            <use fill="#000" filter="url(#d)" xlink:href="#e"/>
            <use fill="url(#f)" xlink:href="#e"/>
        </g>
        <path fill="#FFF" d="M205.503 102.627c0 1.606-.603 3.227-1.807 4.862-1.205 1.636-2.888 3.12-5.049 4.45v4.11l-2.285 1.12v-3.95a29.143 29.143 0 0 1-3.844 1.574c-1.24.4-2.256.612-3.047.634v-2.763c.98-.044 2.111-.24 3.392-.591a19.82 19.82 0 0 0 3.499-1.299v-7.794c-2.42.419-4.118.36-5.093-.179-.974-.538-1.461-1.61-1.461-3.216 0-1.547.6-3.11 1.798-4.69 1.198-1.58 2.784-2.959 4.756-4.138v-3.224l2.285-1.12v3.189c2.173-1.007 4.27-1.597 6.289-1.772l-.921 2.772c-1.76.166-3.55.63-5.368 1.39v7.689c1.854-.318 3.242-.423 4.163-.314.921.11 1.6.42 2.037.933.437.512.656 1.288.656 2.327zm-3.012 1.706c0-.85-.263-1.41-.788-1.677-.526-.268-1.544-.291-3.056-.07v6.89c2.563-1.61 3.844-3.324 3.844-5.143zm-9.69-6.25c0 .897.266 1.487.798 1.77.531.282 1.452.345 2.763.186v-6.855c-1.17.762-2.055 1.565-2.657 2.41-.602.844-.904 1.673-.904 2.488z"/>
    </g>
</svg>
