<svg xmlns="http://www.w3.org/2000/svg" width="70" height="84" viewBox="0 0 70 84">
    <defs>
        <linearGradient id="a" x1="0%" y1="46.072%" y2="46.072%">
            <stop offset="0%" stop-color="#005EC2"/>
            <stop offset="56.5%" stop-color="#118AF8"/>
            <stop offset="100%" stop-color="#019DEC"/>
        </linearGradient>
        <linearGradient id="b" x1="77.975%" y1="-23.78%" y2="46.072%">
            <stop offset="0%" stop-color="#005EC2"/>
            <stop offset="56.5%" stop-color="#118AF8"/>
            <stop offset="100%" stop-color="#019DEC"/>
        </linearGradient>
        <linearGradient id="c" x1="85.774%" x2="71.313%" y1="46.072%" y2="9.057%">
            <stop offset="0%" stop-color="#005EC2"/>
            <stop offset="100%" stop-color="#019DEC"/>
        </linearGradient>
        <linearGradient id="d" x1="28.231%" x2="69.945%" y1="27.956%" y2="77.437%">
            <stop offset="0%" stop-color="#16DE99"/>
            <stop offset="100%" stop-color="#00C8CE"/>
        </linearGradient>
        <linearGradient id="e" x1="45.08%" x2="50%" y1="19.453%" y2="82.508%">
            <stop offset="0%" stop-color="#16DE99"/>
            <stop offset="100%" stop-color="#00C8CE"/>
        </linearGradient>
    </defs>
    <g fill="none" fill-rule="evenodd">
        <path fill="url(#a)" d="M31.18 35.946L.22 24.332.169 63.775 31.18 82.341l38.748-23.197z"/>
        <path fill="url(#b)" d="M20.841 62.909l10.34 6.19L69.927 45.9 59.54 39.681z"/>
        <path fill="url(#c)" d="M31.273 69.197v13.07l38.652-23.11.06-13.295zM20.81 49.821v13.07l38.653-23.11.06-13.295z"/>
        <path fill="url(#b)" d="M10.405 43.092l10.34 6.19 38.747-23.198-10.388-6.22zM0 23.795l10.339 6.19L49.087 6.787 38.699.567z" transform="translate(0 .473)"/>
        <path fill="url(#c)" d="M10.405 29.956v13.07l38.652-23.11.06-13.294z" transform="translate(0 .473)"/>
        <path fill="url(#d)" d="M0 6.8l10.333 6.157 10.535-6.305L10.475.473z" transform="translate(14.19 8.892)"/>
        <path fill="url(#e)" d="M10.36 12.98v13.216l10.545-6.35V6.662z" transform="translate(14.19 8.892)"/>
        <g>
            <path fill="url(#d)" d="M0 6.8l10.333 6.157 10.535-6.305L10.475.473z" transform="translate(24.595 28.284)"/>
            <path fill="url(#e)" d="M10.36 12.98v13.216l10.545-6.35V6.662z" transform="translate(24.595 28.284)"/>
        </g>
        <g>
            <path fill="url(#d)" d="M0 6.8l10.333 6.157 10.535-6.305L10.475.473z" transform="translate(35 47.676)"/>
            <path fill="url(#e)" d="M10.36 12.98v13.216l10.545-6.35V6.662z" transform="translate(35 47.676)"/>
        </g>
    </g>
</svg>
