<svg xmlns="http://www.w3.org/2000/svg" width="280" height="271" viewBox="0 0 280 271">
    <defs>
        <linearGradient id="a" x1="100%" x2="19.779%" y1="100%" y2="20.75%">
            <stop offset="0%" stop-color="#FFF"/>
            <stop offset="57.135%" stop-color="#006ACA"/>
            <stop offset="100%" stop-color="#0157AF"/>
        </linearGradient>
        <linearGradient id="b" x1="100%" x2="19.779%" y1="100%" y2="20.75%">
            <stop offset="0%" stop-color="#FFF"/>
            <stop offset="46.423%" stop-color="#007CD6"/>
            <stop offset="100%" stop-color="#0069C9"/>
        </linearGradient>
        <linearGradient id="c" x1="100%" x2="74.006%" y1="100%" y2="61.36%">
            <stop offset="0%" stop-color="#006CCB"/>
            <stop offset="100%" stop-color="#019FED"/>
        </linearGradient>
        <linearGradient id="d" x1="100%" x2="0%" y1="67.059%" y2="13.514%">
            <stop offset="0%" stop-color="#14DC9D"/>
            <stop offset="100%" stop-color="#01C9CD"/>
        </linearGradient>
    </defs>
    <g fill="none" fill-rule="evenodd" transform="translate(-25)">
        <ellipse cx="165" cy="179.237" fill="#E6F5FF" rx="145.12" ry="81.201" transform="rotate(-20 165 179.237)"/>
        <path fill="url(#a)" d="M70.572 4.357c0-3.312 2.336-4.66 5.216-3.012l152.58 87.308c2.881 1.648 5.216 5.675 5.216 8.98v123.482c0 3.311-2.335 4.66-5.216 3.011l-152.58-87.307c-2.88-1.649-5.216-5.676-5.216-8.98V4.356z" transform="matrix(-1 0 0 1 304.157 0)"/>
        <path fill="url(#b)" d="M83.494 12.279c0-3.312 2.336-4.66 5.216-3.011l152.58 87.307c2.88 1.648 5.216 5.675 5.216 8.98v123.482c0 3.311-2.336 4.66-5.216 3.011L88.71 144.741c-2.88-1.649-5.216-5.676-5.216-8.98V12.278z" transform="matrix(-1 0 0 1 330 0)"/>
        <path fill="url(#c)" d="M94.428 21.191c0-3.311 2.335-4.66 5.216-3.011l152.58 87.307c2.88 1.649 5.216 5.676 5.216 8.98V237.95c0 3.312-2.336 4.66-5.216 3.011l-152.58-87.307c-2.88-1.648-5.216-5.675-5.216-8.98V21.19z" transform="matrix(-1 0 0 1 351.867 0)"/>
        <g fill="#FFF">
            <path d="M160.862 134.2c-5.316 4.389-9.054 8.657-11.458 13.427-2.405 4.77-3.29 9.749-3.29 15.146v8.289c0 .628.263 1.063.694 1.151 21.893 4.508 42.342-8.004 60.66-34.435.39-.563.622-1.248.622-1.839v-8.289c0-5.001-1.058-8.747-3.4-10.823-2.341-2.077-5.865-2.463-10.57-1.336-.518.124-1.069.626-1.44 1.313-2.07 3.825-4.285 8.502-6.73 12.578-2.445 4.076-5.019 7.4-7.784 8.942-6.697 4.048-11.746-1.564-15.957-4.392-.282-.189-.666-.164-1.064.069-.095.056-.19.122-.283.2z"/>
            <path d="M164.006 110.659c0 4.5 1.397 9.752 3.663 13.669 1.133 1.958 2.487 3.567 4.084 4.462 1.597.896 3.5 1.082 5.617-.118 2.118-1.2 4.021-3.543 5.618-6.249 1.597-2.705 2.95-5.848 4.084-9.091 2.266-6.486 3.663-13.321 3.663-17.821 0-8.949-6.022-12.842-13.365-8.68-7.383 4.184-13.364 14.888-13.364 23.828z"/>
        </g>
        <g stroke="url(#d)" stroke-width="9" transform="matrix(-1 0 0 1 152.055 120.812)">
            <path d="M58.683 78.699l25.516 43.827M60.378 77.539c13.112-7.57 15.55-27.895 5.446-45.396C55.72 14.643 36.9 6.592 23.787 14.163c-13.112 7.57-15.55 27.894-5.447 45.395C28.445 77.06 47.265 85.11 60.378 77.54z"/>
        </g>
    </g>
</svg>
