<svg xmlns="http://www.w3.org/2000/svg" width="60" height="60" viewBox="0 0 60 60">
    <g fill="#017DD6" fill-rule="nonzero">
        <path d="M38.56 23.698a1.216 1.216 0 0 0-1.711.177l-7.41 9.111-4.828-4.026a1.216 1.216 0 0 0-1.559 1.867l5.774 4.815a1.215 1.215 0 0 0 1.723-.167l8.187-10.067a1.216 1.216 0 0 0-.176-1.71z"/>
        <path d="M30.09 8.602c-11.869 0-21.486 9.62-21.486 21.486 0 11.867 9.617 21.487 21.486 21.487 11.87 0 21.486-9.62 21.486-21.487 0-11.866-9.617-21.486-21.486-21.486zm0 40.54c-10.506 0-19.054-8.547-19.054-19.054 0-10.506 8.548-19.054 19.054-19.054 10.507 0 19.054 8.548 19.054 19.054 0 10.507-8.547 19.054-19.054 19.054z"/>
        <path d="M59.097 38.239l-1.371-5.542c-.188-.748-.3-1.872-.298-2.974-.002-1.03.097-2.061.262-2.762l1.303-5.557V21.4a5.13 5.13 0 0 0 .129-1.14 6.143 6.143 0 0 0-.728-2.84c-.462-.87-1.126-1.643-1.993-2.169l-4.89-2.95c-.638-.382-1.478-1.064-2.236-1.816-.76-.748-1.453-1.58-1.844-2.213L44.423 3.42c-.531-.852-1.3-1.5-2.164-1.951a6.135 6.135 0 0 0-2.812-.709c-.403 0-.809.046-1.208.144L32.7 2.277c-.75.186-1.874.299-2.976.297-1.03.002-2.061-.096-2.76-.262L21.405 1.01a5.021 5.021 0 0 0-1.142-.128 6.116 6.116 0 0 0-2.841.728c-.87.462-1.642 1.126-2.168 1.993l-2.95 4.888c-.383.64-1.065 1.48-1.815 2.238-.749.76-1.58 1.453-2.214 1.843L3.423 15.58c-.852.53-1.501 1.3-1.952 2.163a6.145 6.145 0 0 0-.709 2.813c.001.403.046.809.144 1.208l1.372 5.54c.186.748.299 1.873.296 2.975.003 1.03-.095 2.062-.26 2.762L1.01 38.6l.002-.007c-.092.384-.13.77-.131 1.148.002.995.267 1.971.728 2.842.463.869 1.126 1.641 1.993 2.168l4.89 2.95c.639.383 1.48 1.065 2.237 1.815.76.749 1.452 1.58 1.843 2.215l3.009 4.85c.53.852 1.3 1.5 2.161 1.952.864.45 1.831.707 2.814.708.403 0 .808-.044 1.207-.143l5.543-1.371c.746-.188 1.872-.3 2.974-.298 1.03-.002 2.062.096 2.761.262l5.558 1.303c.377.088.76.128 1.141.128a6.136 6.136 0 0 0 2.842-.727c.868-.463 1.642-1.126 2.168-1.994l2.95-4.888c.383-.64 1.065-1.48 1.815-2.237.748-.76 1.58-1.453 2.214-1.843l4.852-3.01c.852-.53 1.5-1.3 1.95-2.163.45-.864.707-1.83.708-2.813 0-.401-.142-1.207-.142-1.207zm-2.722 2.894c-.276.533-.67.972-1.076 1.221l-4.851 3.01c-.882.548-1.806 1.335-2.664 2.201-.855.869-1.63 1.802-2.168 2.69l-2.949 4.887c-.247.415-.689.819-1.226 1.102-.535.286-1.157.446-1.702.444-.21 0-.407-.022-.587-.064l-5.557-1.303c-.979-.227-2.14-.325-3.318-.326-1.26.001-2.516.113-3.56.369l-5.541 1.37c-.19.049-.4.073-.623.073a3.72 3.72 0 0 1-1.688-.432c-.532-.277-.97-.67-1.22-1.076l-3.01-4.852c-.548-.881-1.334-1.806-2.2-2.663-.869-.856-1.802-1.631-2.69-2.17l-4.89-2.948c-.413-.247-.817-.689-1.1-1.226a3.695 3.695 0 0 1-.444-1.701 2.4 2.4 0 0 1 .064-.582v-.005l1.303-5.558c.227-.978.324-2.14.326-3.317-.002-1.26-.114-2.516-.368-3.558l-1.372-5.542a2.57 2.57 0 0 1-.072-.624 3.72 3.72 0 0 1 .432-1.687c.276-.534.67-.971 1.077-1.221l4.852-3.01c.882-.548 1.806-1.334 2.663-2.201.856-.869 1.63-1.802 2.169-2.69l2.949-4.888c.247-.414.688-.818 1.225-1.101a3.712 3.712 0 0 1 1.702-.444c.209 0 .405.021.586.064l5.558 1.303c.977.227 2.138.325 3.316.326 1.26-.002 2.517-.114 3.56-.369l5.542-1.371c.19-.048.4-.073.623-.073a3.73 3.73 0 0 1 1.687.433c.533.276.972.67 1.221 1.077l3.01 4.851c.549.882 1.334 1.805 2.2 2.663.87.855 1.803 1.63 2.69 2.169l4.89 2.949c.414.247.817.688 1.1 1.226.287.534.446 1.156.444 1.7 0 .21-.022.409-.064.59v-.001l-1.303 5.557c-.226.977-.326 2.139-.327 3.317.002 1.26.114 2.516.37 3.56l1.372 5.54h-.001c.048.189.071.399.071.623a3.721 3.721 0 0 1-.431 1.688z"/>
    </g>
</svg>
