<svg xmlns="http://www.w3.org/2000/svg" width="293" height="259" viewBox="0 0 293 259">
    <defs>
        <linearGradient id="a" x1="100%" x2="0%" y1="100%" y2="0%">
            <stop offset="0%" stop-color="#E6F5FF"/>
            <stop offset="100%" stop-color="#02B685"/>
        </linearGradient>
        <linearGradient id="b" x1="50%" x2="50%" y1="0%" y2="100%">
            <stop offset="0%" stop-color="#0D77F4"/>
            <stop offset="100%" stop-color="#E6F5FF"/>
        </linearGradient>
        <linearGradient id="c" x1="67.713%" x2="73.623%" y1="55.821%" y2="126.852%">
            <stop offset="0%" stop-color="#0057B4"/>
            <stop offset="100%" stop-color="#019DEC"/>
        </linearGradient>
        <linearGradient id="d" x1="0%" y1="46.072%" y2="46.072%">
            <stop offset="0%" stop-color="#015EC2"/>
            <stop offset="56.5%" stop-color="#0185DC"/>
            <stop offset="100%" stop-color="#019DEC"/>
        </linearGradient>
    </defs>
    <g fill="none" fill-rule="evenodd">
        <path fill="#E6F5FF" d="M286.202 160.257c9.064 5.456 9.064 14.38 0 19.836L162.977 254.26c-9.064 5.451-23.894 5.451-32.958 0L6.798 180.093c-9.064-5.455-9.064-14.38 0-19.836l123.221-74.165c9.064-5.456 23.894-5.456 32.958 0l123.225 74.165z"/>
        <g transform="translate(56)">
            <path stroke="url(#a)" stroke-width="6" d="M130 108v41" transform="matrix(-1 0 0 1 138 0)"/>
            <path fill="#12DAA3" d="M36.831 44.755C21.348 41.107 1.547 55.109.553 68.823c-.994 13.715 4.023 39.627 4.023 39.627s8.085 14.064 31.037 13.759c22.953-.306 14.765-35.04 14.765-35.04s1.936-38.766-13.547-42.414z"/>
            <path stroke="url(#a)" stroke-width="6" d="M4 187v44.121" transform="matrix(-1 0 0 1 138 0)"/>
            <path fill="#D4ECFF" d="M44.18 49.499l7.711-3.76c-3.453-10.735-13.297-14.58-25.037-8.896-4.197 2.032-6.5-.308-10.023 3.437-3.525 3.745-19.332 15.23-15.124 30.113l7.82-3.787-2.055 8.885 2.056 30.644 34.651-17.598V75.491 49.5z"/>
            <path fill="#EE8182" d="M35.404 23.112s1.937-2.183 1.543-.33c-.393 1.852-2.362 5.057-2.362 5.057l.819-4.727zM16.68 32.178s-1.936-.307-1.543 1.164c.393 1.472 2.363 2.77 2.363 2.77"/>
            <path fill="#FFC0B7" d="M35.5 18.315l-18.55 8.983s-.964 11.81 2.251 13.2c4.765 2.061 7.964.954 13.708-6.298C36.44 29.742 35.5 18.315 35.5 18.315z"/>
            <path fill="#703C18" d="M33.419 5.476s-8.818.836-15.882 7.004c-6.025 3.612-1.433 13.02-1.393 12.748.04-.273 17.275-19.752 17.275-19.752z"/>
            <path fill="#703C18" d="M17.18 27.1S14.31 22.4 17.884 17C21.457 11.603 36.32 6.681 34.848 1.17c-1.472-5.513 8.074 10.105 1.031 16.86-7.042 6.754-18.7 9.07-18.7 9.07zM16.95 52.58V40.205l18.55-8.982v12.375l-.057.028C34.931 48.515 31 54.028 26.225 56.34c-4.775 2.311-8.706.606-9.219-3.787l-.057.027zM29.97 27.358c-.57.276-1.031.038-1.031-.532 0-.57.461-1.255 1.03-1.53.57-.276 1.031-.037 1.031.532 0 .57-.461 1.255-1.03 1.53z"/>
            <path fill="#703C18" d="M29.97 27.358c-.57.276-1.031.038-1.031-.532 0-.57.461-1.255 1.03-1.53.57-.276 1.031-.037 1.031.532 0 .57-.461 1.255-1.03 1.53zM22.47 30.99c-.57.276-1.031.037-1.031-.532 0-.57.461-1.255 1.03-1.53.57-.276 1.031-.038 1.031.532 0 .57-.461 1.254-1.03 1.53zM37 15.569s-.653 7.482-1.541 9.34c-.89 1.856-.034-9.426-.034-9.426L37 15.57zM15.083 15.618c.075-1.899-3.986 10.045 2.013 18.181.343-1.565.034-9.457.034-9.457s-1.843-9.498-2.047-8.724z"/>
            <path fill="#FFC0B7" d="M9.398 66.727s-.237 18.7 5.25 20.385c5.487 1.685 19.817 9.854 19.817 9.854h4.488v1.19l-.65.58s3.137.793 3.092 2.006c-.061 1.635-1.36 3.69-3.305 3.69-1.944 0-5.48-3.173-5.48-3.173l-17.119-7.275s-8.906-3.927-10.029-8.001C4.34 81.909 2.68 70.004 2.68 70.004l6.719-3.277z"/>
            <path fill="url(#b)" fill-rule="nonzero" d="M173 119v77.827L165 199v-80z"/>
            <path stroke="url(#a)" stroke-width="6" d="M166 169.113v43.725"/>
            <path fill="#12DAA3" d="M168.462 165.855c2.2 1.244 2.2 3.28 0 4.525l-29.907 16.921c-2.2 1.244-5.8 1.244-8 0l-29.905-16.92c-2.2-1.245-2.2-3.282 0-4.526l29.906-16.921c2.2-1.245 5.799-1.245 7.999 0l29.907 16.92z"/>
            <path fill="url(#b)" fill-rule="nonzero" d="M21 119v67.126L13 188v-69zM97 157v68.099L89 227v-70z"/>
            <path fill="#123D5C" d="M9.718 106.085c2.883 9.304 20.979 12.621 35.885 12.09 9.937-.353 14.318-2.646 13.14-6.878l-13.14-23.03C21.65 100.095 9.689 106.035 9.718 106.085zM134.045 178.481c-15.13-5.745-23.713-9.68-25.752-11.808-2.038-2.127 6.546-3.685 25.752-4.673v16.481z"/>
            <ellipse cx="93" cy="124" fill="url(#c)" rx="80" ry="46"/>
            <ellipse cx="93" cy="118" fill="url(#d)" rx="80" ry="46"/>
            <path fill="#FFC0B7" d="M50.589 46.228c.128.474-2.902 18.788 2.716 20.518 5.618 1.73 14.456 5.716 14.456 5.716l4.709-1.816v1.223l-.666.593s3.212.815 3.166 2.06c-.062 1.68-.08 4.121-2.071 4.121s-6.194-2.22-6.194-2.22l-13.4-2.622s-7.563-2.873-8.713-7.055c-1.15-4.182-.434-17.462-.434-17.462l6.43-3.056zM162.827 106c1.802 9.346 2.431 15.881 1.888 19.605-.543 3.724-2.448 4.42-5.715 2.087L162.827 106z"/>
            <path fill="#D4ECFF" d="M124.707 129.51l7.767 21.372 4.04 22.734 31.23-18.139-12.063-10.9 5.547-26.489 1.788-12.43L151.219 101c-5.971 6.581-12.22 8.955-18.745 7.123L119 119.773l5.707 9.736z"/>
            <path fill="#123D5C" d="M141.463 75.422c-14.828 4.804-13.199 9.443-15.76 24.173-2.56 14.73 2.413 19.037 6.168 20.95 2.582 1.317 12.75 2.88 19.336-.982 7.18-4.21 1.499 2.733 1.507 2.747 6.458-3.21 5.37-8.788 5.14-11.345-.228-2.557-1.563-40.348-16.39-35.543z"/>
            <path fill="#FFC0B7" d="M119.302 120.068l.495 32.18-8.954-5.772c-1.033-3.31-2.78-4.558-5.242-3.747-3.691 1.218-.184 5.422 2.353 6.716 1.69.862 4.833 3.114 9.427 6.754 2.577 2.038 4.942 2.038 7.095 0 2.154-2.037 2.71-10.163 1.67-24.378l-6.844-11.753z"/>
            <path fill="#12DAA3" d="M167.83 123.655c10.36 2.03 2.145 42.824 2.145 42.824l-37.217 20.492s-3.58-23.765-2.583-38.412c.998-14.648 22.114-28.8 37.656-24.904z"/>
        </g>
    </g>
</svg>
