<svg xmlns="http://www.w3.org/2000/svg" width="58" height="60" viewBox="0 0 58 60">
    <path fill="#017DD6" fill-rule="evenodd" d="M30.633 47.513c2.657 0 4.902 2.228 4.902 4.865s-2.245 4.865-4.902 4.865c-2.702 0-4.901-2.182-4.901-4.865 0-2.637 2.245-4.865 4.901-4.865zm16.747-4.46V25.217h4.493c2.027 0 3.676 1.637 3.676 3.649v10.54c0 2.012-1.65 3.649-3.676 3.649H47.38zM10.62 25.136v17.838H6.125c-2.026 0-3.676-1.637-3.676-3.649v-10.54c0-2.012 1.65-3.65 3.676-3.65h4.493zm19.932 34.46c3.523 0 6.483-2.37 7.197-5.76l.068-.322h4.988c4.55 0 8.52-3.339 9.236-7.767l.05-.308.313-.03a6.096 6.096 0 0 0 5.514-6.084v-10.54a5.856 5.856 0 0 0-1.69-4.286c-1.139-1.158-2.686-1.796-4.355-1.796h-1.226v-1.216C50.647 9.64 40.937 0 29 0 17.063 0 7.352 9.639 7.352 21.486v1.216H6.126C2.748 22.702 0 25.431 0 28.783v10.541c0 3.354 2.748 6.081 6.126 6.081h6.944V22.702H9.802v-1.216C9.802 10.98 18.414 2.432 29 2.432c10.585 0 19.197 8.548 19.197 19.054v1.216h-3.268v22.703h4.779l-.136.51c-.812 3.041-3.593 5.166-6.767 5.166h-4.988l-.068-.322c-.714-3.39-3.674-5.76-7.197-5.76-4.054 0-7.352 3.274-7.352 7.298s3.298 7.297 7.352 7.297z"/>
</svg>
