<svg xmlns="http://www.w3.org/2000/svg" width="67" height="99" viewBox="0 0 67 99">
    <defs>
        <linearGradient id="a" x1="0%" y1="46.072%" y2="46.072%">
            <stop offset="0%" stop-color="#015EC2"/>
            <stop offset="56.5%" stop-color="#0185DC"/>
            <stop offset="100%" stop-color="#019DEC"/>
        </linearGradient>
        <linearGradient id="b" x1="50%" x2="50%" y1="0%" y2="100%">
            <stop offset="0%" stop-color="#FFF"/>
            <stop offset="100%" stop-color="#0061C4"/>
        </linearGradient>
        <linearGradient id="c" x1="0%" y1="46.072%" y2="46.072%">
            <stop offset="0%" stop-color="#005EC2"/>
            <stop offset="56.5%" stop-color="#118AF8"/>
            <stop offset="100%" stop-color="#019DEC"/>
        </linearGradient>
        <linearGradient id="d" x1="100%" x2="0%" y1="50%" y2="50%">
            <stop offset="0%" stop-color="#16DE99"/>
            <stop offset="100%" stop-color="#00C8CE"/>
        </linearGradient>
    </defs>
    <g fill="none" fill-rule="evenodd">
        <path fill="url(#a)" d="M.122 28.444L48.129 0l-.1 64.71L0 88.934z"/>
        <path fill="url(#b)" d="M42.943 6.254L.942 30.837l17.574 9.02 42.316-25.113z"/>
        <path fill="url(#c)" d="M18.778 38.641L.3 29.851 0 89.146l18.671 9.792z"/>
        <path fill="url(#c)" d="M18.514 38.46l48.008-27.443-.1 60.71-48.03 27.224z"/>
        <path fill="#000" fill-opacity=".1" d="M27.075 44.516l30.072-16.312-.062 37.03-30.087 17.174z"/>
        <g>
            <path fill="url(#d)" d="M11.943 28.76c6.168-1.923 11.168-9.82 11.168-17.64s-5-12.6-11.168-10.678C5.776 2.365.776 10.262.776 18.082s5 12.6 11.167 10.678z" transform="translate(30.15 40.453)"/>
            <path fill="#FFF" d="M37.625 54.122c0 .862.066 1.477.198 1.846.132.37.349.494.65.373.602-.24.902-1.213.902-2.918s-.3-2.438-.902-2.197c-.301.12-.518.417-.65.892-.132.475-.198 1.143-.198 2.004zm3.077-1.246c0 1.329-.188 2.403-.564 3.22-.376.819-.931 1.374-1.665 1.667-.693.277-1.23.146-1.61-.392-.381-.539-.572-1.45-.572-2.733 0-2.642.727-4.253 2.182-4.834.716-.286 1.266-.164 1.651.367.386.531.578 1.433.578 2.705zm3.433 3.709c0 .861.067 1.479.202 1.853.134.374.352.5.653.38.597-.238.896-1.216.896-2.932 0-1.694-.299-2.422-.896-2.183-.3.12-.519.415-.653.885-.135.47-.202 1.136-.202 1.997zm3.078-1.23c0 1.33-.19 2.403-.568 3.219-.378.816-.93 1.368-1.655 1.658-.693.277-1.231.15-1.614-.383-.383-.532-.574-1.442-.574-2.731 0-2.642.73-4.254 2.188-4.837.702-.28 1.248-.158 1.638.369.39.526.585 1.428.585 2.705zm-2.032-8.05l-5.546 14.893-1.326.53 5.546-14.892 1.326-.53z"/>
        </g>
    </g>
</svg>
