<svg xmlns="http://www.w3.org/2000/svg" xmlns:xlink="http://www.w3.org/1999/xlink" width="293" height="307" viewBox="0 0 293 307">
    <defs>
        <linearGradient id="a" x1="0%" y1="46.072%" y2="46.072%">
            <stop offset="0%" stop-color="#005EC2"/>
            <stop offset="56.5%" stop-color="#118AF8"/>
            <stop offset="100%" stop-color="#019DEC"/>
        </linearGradient>
        <linearGradient id="b" x1="158.021%" x2="-43.504%" y1="87.083%" y2="23.927%">
            <stop offset="0%" stop-color="#FFF" stop-opacity="0"/>
            <stop offset="100%" stop-color="#FFF" stop-opacity=".393"/>
        </linearGradient>
        <linearGradient id="c" x1="100%" x2="0%" y1="100%" y2="0%">
            <stop offset="0%" stop-color="#0059BF"/>
            <stop offset="100%" stop-color="#01A2EF"/>
        </linearGradient>
        <path id="d" d="M.185 20.153s-.365.384 1.085 1.257c1.45.874 21.063 12.35 21.063 12.35s1.125.98 3.158-.146c2.032-1.128 32.166-18.64 32.166-18.64s.972-.449.2-1.008C57.087 13.408 34.971.727 34.971.727s-.354-.592-1.45.119C32.425 1.556.185 20.153.185 20.153z"/>
        <linearGradient id="e" x1="100%" x2="0%" y1="100%" y2="0%">
            <stop offset="0%" stop-color="#B2D6FF"/>
            <stop offset="100%" stop-color="#FFF"/>
        </linearGradient>
    </defs>
    <g fill="none" fill-rule="evenodd">
        <path fill="#E6F5FF" d="M286.202 208.257c9.064 5.456 9.064 14.38 0 19.836L162.977 302.26c-9.064 5.451-23.894 5.451-32.958 0L6.798 228.093c-9.064-5.455-9.064-14.38 0-19.836l123.221-74.165c9.064-5.456 23.894-5.456 32.958 0l123.225 74.165z"/>
        <path fill="#04C9BF" d="M153.568 182c-1.588 1.292-3.63 2.362-6.527 4.39-.1.137-9.827 5.631-6.032 9.29 1.321 1.272 4.172 1.3 7.756-.799l11.558-8.193-6.755-4.688zM170.437 191c-1.588 1.292-3.63 2.362-6.527 4.39-.1.137-9.827 5.631-6.032 9.29 1.32 1.272 4.171 1.3 7.756-.799l11.557-8.193-6.754-4.688z"/>
        <path fill="#123D5C" d="M146.997 91.507l13.848 7.236-.599 88.299-8.178-4.794z"/>
        <path fill="#266899" d="M151.492 180.925l8.871 4.463-.029 1.941-8.815-4.501z"/>
        <path fill="#123D5C" d="M164.476 100.64l13.848 7.236-.945 88.36-7.896-4.311z"/>
        <path fill="#266899" d="M169.036 190.092l8.68 4.469-.021 1.85-8.64-4.517z"/>
        <path fill="#123D5C" d="M146.913 91.463l31.102 16.252-.378 10.41-30.254-15.81z"/>
        <path fill="#04C9BF" d="M146.274 49.247L139 45.495c3.257-10.718 12.542-14.556 23.615-8.881 3.958 2.028 6.13-.309 9.454 3.43 3.324 3.739 18.234 15.204 14.264 30.062l-7.376-3.78.095.705-.095 41.969-32.683-16.75V75.195 49.247z"/>
        <path fill="#EE8182" d="M154.322 23.113s-1.604-2.258-1.278-.342C153.369 24.686 155 28 155 28l-.678-4.887zM172.678 32.027s1.604-.31 1.278 1.176C173.631 34.689 172 36 172 36"/>
        <path fill="#FFC0B7" d="M155.109 18l17.761 8.942s.04 6.804-.173 12.736c-.02.528-1.617.24-1.982.405-4.563 2.051-7.625.95-13.126-6.27-.438-.576-2.182-1.697-2.346-2.531-1.04-5.298-.134-13.282-.134-13.282zM185.714 69.71c-.14 13.454-.93 21.05-2.367 22.786-1.437 1.737-7.392 4.092-17.865 7.066l-1.485-7.066 14.1-3.927.77-22.332 6.847 3.473z"/>
        <path fill="#703C18" d="M157 6s8.36.847 15.056 7.09c5.713 3.657 1.359 13.18 1.32 12.904C173.34 25.718 157 6 157 6z"/>
        <path fill="#703C18" d="M171.98 27s2.687-4.685-.66-10.066c-3.349-5.38-17.277-10.286-15.898-15.781 1.38-5.495-7.566 10.072-.966 16.805C161.055 24.69 171.979 27 171.979 27zM173 52.236V39.931L155 31v12.305l.055.027c.497 4.861 4.312 10.343 8.945 12.642 4.633 2.299 8.448.603 8.945-3.765l.055.027zM160 26.9c.552.24 1 .032 1-.465s-.448-1.094-1-1.335c-.552-.24-1-.032-1 .465s.448 1.094 1 1.335z"/>
        <path fill="#703C18" d="M160 26.9c.552.24 1 .032 1-.465s-.448-1.094-1-1.335c-.552-.24-1-.032-1 .465s.448 1.094 1 1.335zM167 30.9c.552.24 1 .032 1-.465s-.448-1.094-1-1.335c-.552-.24-1-.032-1 .465s.448 1.094 1 1.335zM153 16.089s.671 7.769 1.585 9.697c.914 1.928.034-9.786.034-9.786l-1.619.089zM173.892 15.197c-.066-1.859 3.467 9.836-1.751 17.803-.299-1.532-.03-9.26-.03-9.26s1.603-9.3 1.781-8.543z"/>
        <path fill="#FFC0B7" d="M140.742 46.363l.02 22.778 5.437 3.381.088-23.287z"/>
        <path fill="url(#a)" d="M.185 20.153s-.365.384 1.085 1.257c1.45.874 21.063 12.35 21.063 12.35s1.125.98 3.158-.146c2.032-1.128 32.166-18.64 32.166-18.64s.972-.449.2-1.008C57.087 13.408 34.971.727 34.971.727s-.354-.592-1.45.119C32.425 1.556.185 20.153.185 20.153z" transform="matrix(1 0 0 -1 122 105)"/>
        <path fill="#000" fill-opacity=".1" d="M125.649 84.524l30.577 17.922 11.317-6.585-30.514-17.915z"/>
        <path fill="url(#b)" d="M23.199 22.94l9.678 5.653 15.534-9.021-9.699-5.671z" transform="matrix(1 0 0 -1 122 105)"/>
        <path fill="url(#c)" d="M24.793 48s-.71-.075-.686-.962c.023-.887.05-26.248.05-26.248s-.968-.137 1.896-1.805C28.917 17.318 57.451.415 57.451.415s1.419-1.203 1.393.487c-.026 1.69.156 26.172.156 26.172L24.793 48z" transform="matrix(-1 0 0 1 181 57)"/>
        <path fill="#7BBCEE" d="M139 81.826c-1.105-.45-2-1.633-2-2.642 0-1.008.895-1.46 2-1.01 1.105.45 2 1.633 2 2.642 0 1.008-.895 1.46-2 1.01z"/>
        <g>
            <path fill="#04C9BF" d="M84.568 202c-1.588 1.292-3.63 2.362-6.527 4.39-.1.137-9.827 5.631-6.032 9.29 1.321 1.272 4.172 1.3 7.756-.799l11.558-8.193L84.568 202zM101.437 211c-1.588 1.292-3.63 2.362-6.527 4.39-.1.137-9.827 5.631-6.032 9.29 1.32 1.272 4.171 1.3 7.756-.799l11.557-8.193-6.754-4.688z"/>
            <path fill="#123D5C" d="M77.997 111.507l13.848 7.236-.599 88.299-8.178-4.794z"/>
            <path fill="#266899" d="M82.492 200.925l8.871 4.463-.029 1.941-8.815-4.501z"/>
            <path fill="#123D5C" d="M95.476 120.64l13.848 7.236-.945 88.36-7.896-4.311z"/>
            <path fill="#266899" d="M100.036 210.092l8.68 4.469-.021 1.85-8.64-4.517z"/>
            <path fill="#123D5C" d="M77.913 111.463l31.102 16.252-.378 10.41-30.254-15.81z"/>
            <path fill="#128CF9" d="M77.274 69.247L70 65.495c3.257-10.718 12.542-14.556 23.615-8.881 3.958 2.028 6.13-.309 9.454 3.43 3.324 3.739 18.234 15.204 14.264 30.062l-7.376-3.78.095.705-.095 41.969-32.683-16.75V95.195 69.247z"/>
            <path fill="#EE8182" d="M85.322 43.113s-1.604-2.258-1.278-.342C84.369 44.686 86 48 86 48l-.678-4.887zM103.678 52.027s1.604-.31 1.278 1.176C104.631 54.689 103 56 103 56"/>
            <path fill="#FFC0B7" d="M86.109 38l17.761 8.942s.04 6.804-.173 12.736c-.02.528-1.617.24-1.982.405-4.563 2.051-7.625.95-13.126-6.27-.438-.576-2.182-1.697-2.346-2.531C85.203 45.984 86.109 38 86.109 38zM116.714 89.71c-.14 13.454-.93 21.05-2.367 22.786-1.437 1.737-7.392 4.092-17.865 7.066l-1.485-7.066 14.1-3.927.77-22.332 6.847 3.473z"/>
            <path fill="#703C18" d="M88 26s8.36.847 15.056 7.09c5.713 3.657 1.359 13.18 1.32 12.904C104.34 45.718 88 26 88 26z"/>
            <path fill="#703C18" d="M102.98 47s2.687-4.685-.66-10.066c-3.349-5.38-17.277-10.286-15.898-15.781 1.38-5.495-7.566 10.072-.966 16.805C92.055 44.69 102.979 47 102.979 47zM104 72.236V59.931L86 51v12.305l.055.027c.497 4.861 4.312 10.343 8.945 12.642 4.633 2.299 8.448.603 8.945-3.765l.055.027zM91 46.9c.552.24 1 .032 1-.465s-.448-1.094-1-1.335c-.552-.24-1-.032-1 .465s.448 1.094 1 1.335z"/>
            <path fill="#703C18" d="M91 46.9c.552.24 1 .032 1-.465s-.448-1.094-1-1.335c-.552-.24-1-.032-1 .465s.448 1.094 1 1.335zM98 50.9c.552.24 1 .032 1-.465s-.448-1.094-1-1.335c-.552-.24-1-.032-1 .465s.448 1.094 1 1.335zM84 36.089s.671 7.769 1.585 9.697c.914 1.928.034-9.786.034-9.786L84 36.089zM104.892 35.197c-.066-1.859 3.467 9.836-1.751 17.803-.299-1.532-.03-9.26-.03-9.26s1.603-9.3 1.781-8.543z"/>
            <path fill="#FFC0B7" d="M71.742 66.363l.02 22.778 5.437 3.381.088-23.287z"/>
            <g transform="matrix(1 0 0 -1 53 125)">
                <use fill="url(#a)" xlink:href="#d"/>
                <use fill="#C8E2FF" xlink:href="#d"/>
            </g>
            <path fill="#000" fill-opacity=".1" d="M56.649 104.524l30.577 17.922 11.317-6.585L68.03 97.946z"/>
            <path fill="url(#b)" d="M23.199 22.94l9.678 5.653 15.534-9.021-9.699-5.671z" transform="matrix(1 0 0 -1 53 125)"/>
            <path fill="url(#e)" d="M24.793 48s-.71-.075-.686-.962c.023-.887.05-26.248.05-26.248s-.968-.137 1.896-1.805C28.917 17.318 57.451.415 57.451.415s1.419-1.203 1.393.487c-.026 1.69.039 26.694.039 26.694L24.793 48z" transform="matrix(-1 0 0 1 112 77)"/>
            <path fill="#7BBCEE" d="M70 101.826c-1.105-.45-2-1.633-2-2.642 0-1.008.895-1.46 2-1.01 1.105.45 2 1.633 2 2.642 0 1.008-.895 1.46-2 1.01z"/>
        </g>
        <g>
            <path fill="#04C9BF" d="M165.568 243c-1.588 1.292-3.63 2.362-6.527 4.39-.1.137-9.827 5.631-6.032 9.29 1.321 1.272 4.172 1.3 7.756-.799l11.558-8.193-6.755-4.688zM182.437 252c-1.588 1.292-3.63 2.362-6.527 4.39-.1.137-9.827 5.631-6.032 9.29 1.32 1.272 4.171 1.3 7.756-.799l11.557-8.193-6.754-4.688z"/>
            <path fill="#123D5C" d="M158.997 152.507l13.848 7.236-.599 88.299-8.178-4.794z"/>
            <path fill="#266899" d="M163.492 241.925l8.871 4.463-.029 1.941-8.815-4.501z"/>
            <path fill="#123D5C" d="M176.476 161.64l13.848 7.236-.945 88.36-7.896-4.311z"/>
            <path fill="#266899" d="M181.036 251.092l8.68 4.469-.021 1.85-8.64-4.517z"/>
            <path fill="#123D5C" d="M158.913 152.463l31.102 16.252-.378 10.41-30.254-15.81z"/>
            <path fill="#D4ECFF" d="M158.274 110.247L151 106.495c3.257-10.718 12.542-14.556 23.615-8.881 3.958 2.028 6.13-.309 9.454 3.43 3.324 3.739 18.234 15.204 14.264 30.062l-7.376-3.78.095.705-.095 41.969-32.683-16.75v-17.055-25.948z"/>
            <path fill="#EE8182" d="M166.322 84.113s-1.604-2.258-1.278-.342C165.369 85.686 167 89 167 89l-.678-4.887zM184.678 93.027s1.604-.31 1.278 1.176C185.631 95.689 184 97 184 97"/>
            <path fill="#FFC0B7" d="M167.109 79l17.761 8.942s.04 6.804-.173 12.736c-.02.528-1.617.24-1.982.405-4.563 2.051-7.625.95-13.126-6.27-.438-.576-2.182-1.697-2.346-2.531-1.04-5.298-.134-13.282-.134-13.282zM197.714 130.71c-.14 13.454-.93 21.05-2.367 22.786-1.437 1.737-7.392 4.092-17.865 7.066l-1.485-7.066 14.1-3.927.77-22.332 6.847 3.473z"/>
            <path fill="#703C18" d="M169 67s8.36.847 15.056 7.09c5.713 3.657 1.359 13.18 1.32 12.904C185.34 86.718 169 67 169 67z"/>
            <path fill="#703C18" d="M183.98 88s2.687-4.685-.66-10.066c-3.349-5.38-17.277-10.286-15.898-15.781 1.38-5.495-7.566 10.072-.966 16.805C173.055 85.69 183.979 88 183.979 88zM185 113.236v-12.305L167 92v12.305l.055.027c.497 4.861 4.312 10.343 8.945 12.642 4.633 2.299 8.448.603 8.945-3.765l.055.027zM172 87.9c.552.24 1 .032 1-.465s-.448-1.094-1-1.335c-.552-.24-1-.032-1 .465s.448 1.094 1 1.335z"/>
            <path fill="#703C18" d="M172 87.9c.552.24 1 .032 1-.465s-.448-1.094-1-1.335c-.552-.24-1-.032-1 .465s.448 1.094 1 1.335zM179 91.9c.552.24 1 .032 1-.465s-.448-1.094-1-1.335c-.552-.24-1-.032-1 .465s.448 1.094 1 1.335zM165 77.089s.671 7.769 1.585 9.697c.914 1.928.034-9.786.034-9.786l-1.619.089zM185.892 76.197c-.066-1.859 3.467 9.836-1.751 17.803-.299-1.532-.03-9.26-.03-9.26s1.603-9.3 1.781-8.543z"/>
            <path fill="#FFC0B7" d="M152.742 107.363l.02 22.778 5.437 3.381.088-23.287z"/>
            <path fill="#04C9BF" d="M134.185 145.847s-.365-.384 1.085-1.257c1.45-.874 21.063-12.35 21.063-12.35s1.125-.98 3.158.146c2.032 1.128 32.166 18.64 32.166 18.64s.972.449.2 1.008c-.77.558-22.886 13.239-22.886 13.239s-.354.592-1.45-.119c-1.096-.71-33.336-19.307-33.336-19.307z"/>
            <path fill="#000" fill-opacity=".1" d="M137.649 145.524l30.577 17.922 11.317-6.585-30.514-17.915z"/>
            <path fill="url(#b)" d="M23.199 22.94l9.678 5.653 15.534-9.021-9.699-5.671z" transform="matrix(1 0 0 -1 134 166)"/>
            <path fill="#04C9BF" d="M168.207 166s.71-.075.686-.962c-.023-.887-.05-26.248-.05-26.248s.968-.137-1.896-1.805c-2.864-1.667-31.398-18.57-31.398-18.57s-1.419-1.203-1.393.487c.026 1.69-.156 26.172-.156 26.172L168.207 166z"/>
            <path fill="#000" d="M151 142.826c-1.105-.45-2-1.633-2-2.642 0-1.008.895-1.46 2-1.01 1.105.45 2 1.633 2 2.642 0 1.008-.895 1.46-2 1.01z" opacity=".181"/>
        </g>
    </g>
</svg>
