<svg xmlns="http://www.w3.org/2000/svg" width="293" height="302" viewBox="0 0 293 302">
    <defs>
        <linearGradient id="a" x1="110.299%" x2="141.113%" y1="147.691%" y2="68.875%">
            <stop offset="0%" stop-color="#E6F5FF"/>
            <stop offset="100%" stop-color="#018CE0"/>
        </linearGradient>
        <linearGradient id="b" x1="67.713%" x2="73.623%" y1="55.821%" y2="126.852%">
            <stop offset="0%" stop-color="#0057B4"/>
            <stop offset="100%" stop-color="#019DEC"/>
        </linearGradient>
        <linearGradient id="c" x1="100%" x2="0%" y1="50%" y2="50%">
            <stop offset="0%" stop-color="#16DE99"/>
            <stop offset="100%" stop-color="#00C8CE"/>
        </linearGradient>
        <linearGradient id="d" x1="0%" y1="46.072%" y2="46.072%">
            <stop offset="0%" stop-color="#015EC2"/>
            <stop offset="56.5%" stop-color="#0185DC"/>
            <stop offset="100%" stop-color="#019DEC"/>
        </linearGradient>
    </defs>
    <g fill="none" fill-rule="evenodd">
        <path fill="#E6F5FF" d="M286.202 203.257c9.064 5.456 9.064 14.38 0 19.836L162.977 297.26c-9.064 5.451-23.894 5.451-32.958 0L6.798 223.093c-9.064-5.455-9.064-14.38 0-19.836l123.221-74.165c9.064-5.456 23.894-5.456 32.958 0l123.225 74.165z"/>
        <path fill="url(#a)" d="M77.165 190.883L46.27 205.835s-4.102 2.617-.452 5.519c3.65 2.901 49.228 30.756 49.228 30.756s5.869 3.378 11.663.131c5.795-3.247 24.502-17.99 24.502-17.99l-54.046-33.368z" transform="translate(48)"/>
        <path fill="url(#b)" d="M187.407 109.515s1.677 1.089 1.677 3.18c0 2.09.896 134.897.896 134.897s.008.301.02 1.176c0 .484-.675.847-.675.847l-7.203 4.238-2.571-139.728 7.856-4.61z" transform="translate(48)"/>
        <path fill="url(#b)" d="M2.556 4.139L8.97.576s.662-.334.947-.259c.189-.036.824.411.824.411l176.704 108.828-7.24 4.37L2.556 4.14z" transform="translate(48)"/>
        <path fill="#0E7CDC" d="M48 7.769c.182-.08.252 120.547.252 120.547l182.08 110.192-1.017-120.992s.244-2.698-1.939-4.535C225.193 111.144 53.386 5.21 53.338 5.128 50.717 3.591 48.144 4.28 48 7.768z"/>
        <path fill="url(#c)" d="M7.668 14.737l.82 109.644L177.22 226.409l-1.46-109.952z" transform="translate(48)"/>
        <path fill="url(#d)" d="M.854 127.953v14.512s-.145 2.834 2.212 4.288c2.357 1.453 173.472 106.458 173.472 106.458s6.627 3.906 6.542-1.081c-.085-4.987.104-14.385.104-14.385L.854 127.953z" transform="translate(48)"/>
        <path fill="#FFF" fill-rule="nonzero" d="M148.813 115.442l-3.815-2.34c-.442-1.985-1.125-4.048-2.03-6.128l2.7-1.023c.598-.226.934-.825.934-1.665 0-.84-.336-1.851-.934-2.812l-2.253-3.618c-.598-.96-1.41-1.792-2.255-2.311-.846-.52-1.657-.683-2.255-.456l-2.704 1.015a44.071 44.071 0 0 0-4.92-5.033v-3.786c0-1.747-1.427-4.04-3.187-5.12l-3.188-1.955c-1.76-1.08-3.187-.539-3.187 1.209v3.786c-1.727-.62-3.383-.958-4.92-1.004l-2.698-4.334c-.598-.96-1.41-1.792-2.256-2.311-.846-.52-1.657-.683-2.255-.456l-2.252.854c-.599.226-.935.825-.935 1.665 0 .84.336 1.851.935 2.812l2.693 4.337c-.904.97-1.587 2.195-2.03 3.638l-3.813-2.34c-1.76-1.08-3.188-.54-3.188 1.208v3.164c0 1.748 1.427 4.04 3.188 5.12l3.814 2.34c.442 1.985 1.125 4.048 2.03 6.128l-2.7 1.023c-.598.226-.934.825-.934 1.665 0 .84.336 1.851.935 2.812l2.252 3.618c.598.96 1.41 1.792 2.255 2.311.846.52 1.657.683 2.255.456l2.704-1.015a44.071 44.071 0 0 0 4.92 5.033v3.786c0 1.747 1.427 4.04 3.187 5.12l3.188 1.955c1.76 1.08 3.187.539 3.187-1.209v-3.786c1.727.62 3.383.958 4.92 1.004l2.698 4.334c.598.96 1.41 1.792 2.256 2.311.846.52 1.657.683 2.255.456l2.252-.854c.599-.226.935-.825.935-1.665 0-.84-.336-1.851-.935-2.812l-2.693-4.337c.904-.97 1.587-2.195 2.03-3.638l3.814 2.34c1.76 1.08 3.187.54 3.187-1.208v-3.164c0-1.748-1.427-4.04-3.188-5.12zM126.5 114.41c-3.223-1.977-6.129-5.687-7.362-9.4-1.234-3.712-.552-6.696 1.727-7.56 2.28-.864 5.707.562 8.685 3.613 2.977 3.051 4.919 7.126 4.919 10.326 0 2.098-.84 3.594-2.334 4.161-1.495.567-3.522.157-5.635-1.14z"/>
        <path fill="#FFF" fill-rule="nonzero" d="M175.813 154.714l-2.618-1.626a23.85 23.85 0 0 0-1.393-4.259l1.852-.71c.41-.158.642-.574.642-1.158 0-.583-.231-1.286-.642-1.954l-1.546-2.514c-.41-.668-.967-1.245-1.547-1.606-.58-.36-1.138-.475-1.548-.317l-1.856.706a30.45 30.45 0 0 0-3.376-3.498v-2.63c0-1.215-.98-2.808-2.187-3.558l-2.188-1.36c-1.208-.75-2.187-.374-2.187.84v2.632c-1.185-.431-2.322-.666-3.376-.698l-1.852-3.012c-.41-.667-.967-1.245-1.548-1.606-.58-.36-1.137-.475-1.548-.317l-1.546.594c-.41.157-.641.573-.641 1.157 0 .584.23 1.287.641 1.954l1.849 3.014c-.62.674-1.09 1.525-1.393 2.528l-2.618-1.626c-1.208-.75-2.187-.375-2.187.84v2.198c0 1.215.98 2.807 2.188 3.558l2.617 1.626a23.85 23.85 0 0 0 1.393 4.259l-1.852.71c-.41.158-.642.574-.642 1.158 0 .583.231 1.286.642 1.954l1.546 2.514c.41.668.967 1.245 1.547 1.606.58.36 1.138.475 1.548.317l1.856-.706a30.45 30.45 0 0 0 3.376 3.498v2.63c0 1.215.98 2.808 2.187 3.558l2.188 1.36c1.208.75 2.187.374 2.187-.84v-2.632c1.185.431 2.322.666 3.376.698l1.852 3.012c.41.667.967 1.245 1.548 1.606.58.36 1.137.475 1.548.317l1.546-.594c.41-.157.641-.573.641-1.157 0-.584-.23-1.287-.641-1.954l-1.849-3.014c.62-.674 1.09-1.525 1.393-2.528l2.618 1.626c1.208.75 2.187.375 2.187-.84v-2.198c0-1.215-.98-2.807-2.187-3.558zm-15.313-.717c-2.212-1.374-4.206-3.952-5.052-6.532-.847-2.58-.379-4.654 1.185-5.254 1.564-.6 3.916.39 5.96 2.51 2.043 2.12 3.376 4.953 3.376 7.176 0 1.458-.576 2.498-1.602 2.892-1.026.394-2.417.109-3.867-.792z"/>
    </g>
</svg>
