<svg xmlns="http://www.w3.org/2000/svg" width="311" height="352" viewBox="0 0 311 352">
    <defs>
        <linearGradient id="a" x1="0%" y1="46.072%" y2="46.072%">
            <stop offset="0%" stop-color="#005EC2"/>
            <stop offset="56.5%" stop-color="#118AF8"/>
            <stop offset="100%" stop-color="#019DEC"/>
        </linearGradient>
        <linearGradient id="b" x1="0%" y1="46.072%" y2="46.072%">
            <stop offset="0%" stop-color="#015EC2"/>
            <stop offset="56.5%" stop-color="#0185DC"/>
            <stop offset="100%" stop-color="#019DEC"/>
        </linearGradient>
        <linearGradient id="c" x1="100%" x2="37.698%" y1="102.274%" y2="14.358%">
            <stop offset="0%" stop-color="#FFF" stop-opacity="0"/>
            <stop offset="100%" stop-color="#FFF" stop-opacity=".393"/>
        </linearGradient>
        <linearGradient id="d" x1="100%" x2="0%" y1="100%" y2="0%">
            <stop offset="0%" stop-color="#0059BF"/>
            <stop offset="100%" stop-color="#01A2EF"/>
        </linearGradient>
        <linearGradient id="e" x1="158.021%" x2="-43.504%" y1="87.083%" y2="23.927%">
            <stop offset="0%" stop-color="#FFF" stop-opacity="0"/>
            <stop offset="100%" stop-color="#FFF" stop-opacity=".393"/>
        </linearGradient>
        <linearGradient id="f" x1="50%" x2="50%" y1="0%" y2="100%">
            <stop offset="0%" stop-color="#0D77F4"/>
            <stop offset="100%" stop-color="#FFF"/>
        </linearGradient>
        <linearGradient id="g" x1="50%" x2="50%" y1="0%" y2="100%">
            <stop offset="0%" stop-color="#107CE9"/>
            <stop offset="100%" stop-color="#FFF"/>
        </linearGradient>
        <linearGradient id="h" x1="63.948%" x2="41.585%" y1="31.286%" y2="93.064%">
            <stop offset="0%" stop-color="#FFF"/>
            <stop offset="100%" stop-color="#128AF8"/>
        </linearGradient>
        <linearGradient id="i" x1="63.948%" x2="41.585%" y1="31.286%" y2="93.064%">
            <stop offset="0%" stop-color="#FFF"/>
            <stop offset="100%" stop-color="#02CAC7"/>
        </linearGradient>
        <linearGradient id="j" x1="55.312%" x2="-19.281%" y1="61.948%" y2="19.545%">
            <stop offset="0%" stop-color="#005DC1"/>
            <stop offset="56.5%" stop-color="#019AEA"/>
            <stop offset="100%" stop-color="#01A0EE"/>
        </linearGradient>
        <linearGradient id="k" x1="100%" x2="0%" y1="50%" y2="50%">
            <stop offset="0%" stop-color="#16DE99"/>
            <stop offset="100%" stop-color="#00C8CE"/>
        </linearGradient>
        <linearGradient id="l" x1="50%" x2="50%" y1="140.851%" y2="0%">
            <stop offset="0%" stop-color="#7BEBE6"/>
            <stop offset="100%" stop-color="#05BCB3"/>
        </linearGradient>
    </defs>
    <g fill="none" fill-rule="evenodd">
        <path fill="url(#a)" d="M0 69l311 212.968-118.995 69.3L0 240z"/>
        <path fill="url(#b)" d="M119 0l192 111v171L119 171z"/>
        <path fill="url(#c)" d="M142 49.199v108.399l52.525 29.646-.265-109.059L142 48zM229 97.199v108.399l52.525 29.646-.265-109.059L229 96z"/>
        <path fill="url(#d)" d="M0 0l119 69v171L0 171z" transform="matrix(-1 0 0 1 119 0)"/>
        <path fill="url(#e)" d="M38 56.199v108.399l52.525 29.646-.265-109.059L38 55z" transform="matrix(-1 0 0 1 128.525 0)"/>
        <path fill="#12DAA3" d="M166.948 166.69c10.269-2.842 29.173 8.169 29.832 18.852.659 10.683-7.554 28.955-7.554 28.955l-25.472-14.8s-7.076-30.166 3.194-33.007z"/>
        <path fill="#D4ECFF" d="M164.214 180.314l-5.142-2.62c2.302-7.487 8.866-10.168 16.692-6.204 2.798 1.417 4.333-.215 6.682 2.396 2.35 2.612 12.888 10.62 10.083 20.998l-5.214-2.64 1.37 6.195-1.37 23.612-23.101-11.7V198.44v-18.125z"/>
        <path fill="#EE8182" d="M170.064 161.916s-1.291-1.522-1.029-.23c.262 1.29 1.575 3.525 1.575 3.525l-.546-3.295zM182.546 168.237s1.291-.214 1.03.812c-.263 1.026-1.576 1.93-1.576 1.93"/>
        <path fill="#FFC0B7" d="M170 158.57l12.367 6.264s.642 8.235-1.501 9.205c-3.177 1.437-5.31.665-9.139-4.392-2.354-3.108-1.727-11.076-1.727-11.076z"/>
        <path fill="#703C18" d="M171.387 149.618s5.88.583 10.588 4.884c4.017 2.519.956 9.079.929 8.889-.027-.19-11.517-13.773-11.517-13.773z"/>
        <path fill="#703C18" d="M182.213 164.696s1.913-3.277-.47-7.041c-2.381-3.764-12.29-7.196-11.308-11.04.981-3.844-5.383 7.046-.688 11.756s12.466 6.325 12.466 6.325zM182.367 182.463v-8.629L170 167.571v8.63l.038.018c.342 3.41 2.963 7.254 6.146 8.866 3.182 1.611 5.804.422 6.145-2.64l.038.018zM173.687 164.876c.38.193.687.026.687-.37 0-.398-.307-.876-.687-1.068-.38-.192-.687-.026-.687.371s.308.875.687 1.067z"/>
        <path fill="#703C18" d="M173.687 164.876c.38.193.687.026.687-.37 0-.398-.307-.876-.687-1.068-.38-.192-.687-.026-.687.371s.308.875.687 1.067zM178.687 167.409c.38.192.687.026.687-.372 0-.397-.307-.874-.687-1.067-.38-.192-.687-.026-.687.372 0 .397.308.874.687 1.067zM169 156.656s.435 5.217 1.028 6.512c.592 1.294.022-6.572.022-6.572l-1.05.06zM183.612 156.69c-.05-1.324 2.657 7.004-1.343 12.678-.228-1.092-.022-6.595-.022-6.595s1.228-6.623 1.365-6.083z"/>
        <g>
            <path fill="url(#f)" fill-rule="nonzero" d="M0 34v41.843l2 1.169V34zM94 89v41.843l2 1.169V89z" transform="translate(68 178)"/>
            <path fill="url(#g)" fill-rule="nonzero" d="M153 59v41.843l2 1.169V59z" transform="translate(68 178)"/>
            <path fill="url(#h)" d="M59.348 0L155 55.311 95.694 89.85 0 34.395z" transform="translate(68 178)"/>
            <path fill="url(#i)" d="M90.528 23L122 41.2l-19.514 11.363L71 34.317z" transform="translate(68 178)"/>
        </g>
        <path fill="url(#j)" d="M192 111l119 69v171l-119-69z" opacity=".412" transform="matrix(-1 0 0 1 503 0)"/>
        <path fill="#FFC0B7" d="M187.766 192s.916 13.357-2.775 14.544c-3.69 1.187-13.33 6.942-13.33 6.942h-3.018v.839l.437.407s-2.11.56-2.08 1.413c.041 1.152.915 2.6 2.223 2.6 1.308 0 3.686-2.235 3.686-2.235l11.515-5.125s5.99-2.766 6.746-5.636c.755-2.87 1.713-11.13 1.713-11.13L187.766 192zM159.766 178s.916 13.357-2.775 14.544c-3.69 1.187-13.33 6.942-13.33 6.942h-3.018v.839l.437.407s-2.11.56-2.08 1.413c.041 1.152.915 2.6 2.223 2.6 1.308 0 3.686-2.235 3.686-2.235l11.515-5.125s5.99-2.766 6.746-5.636c.755-2.87 1.31-11.414 1.31-11.414L159.766 178z"/>
        <g transform="translate(108 171)">
            <path fill="url(#k)" d="M1.226.097l47.09 27.253s2.678 1.25 2.95 3.806c.273 2.555 4.634 34.808 4.634 34.808s.629 3.013-1.956 1.515C51.359 65.982 6.601 39.931 6.601 39.931s-1.374-.779-1.785-2.856C4.404 34.998 1.812 19.055.11 1.523-.272-.499 1.226.097 1.226.097z"/>
            <path fill="url(#l)" d="M23.789 53.163l9.064 5.306s1.149.59.229.962-10.897 4.34-10.897 4.34l-2.004-2.923 2.97-8.502.638.817z"/>
            <path fill="url(#l)" d="M20.419 33.712l-8.703 20.11-.625 1.5s-.852 1.482.18 2.164c1.032.683 10.926 6.263 10.926 6.263s-.495-.585-.338-1.385c.158-.8 5.253-24.792 5.253-24.792l-6.693-3.86z"/>
            <ellipse cx="19.261" cy="47.242" fill="#FFF" rx="2.14" ry="2.505"/>
        </g>
    </g>
</svg>
