<svg xmlns="http://www.w3.org/2000/svg" width="20" height="25" viewBox="0 0 20 25">
    <defs>
        <linearGradient id="a" x1="0%" y1="46.072%" y2="69.48%">
            <stop offset="0%" stop-color="#0059BF"/>
            <stop offset="100%" stop-color="#01A2EF"/>
        </linearGradient>
    </defs>
    <path fill="url(#a)" fill-rule="nonzero" d="M9.784 0C6.432 0 3.314 1.61 1.52 4.264-.275 6.92-.494 10.25.938 13.092c.196.375.42.736.672 1.08l7.438 10.46c.164.23.44.368.735.368s.57-.138.734-.368l7.398-10.402c2.006-2.808 2.196-6.425.494-9.405C16.707 1.845 13.39-.01 9.784 0zm0 13.577c-2.6 0-4.707-1.976-4.707-4.413 0-2.438 2.107-4.413 4.707-4.413 2.6 0 4.708 1.975 4.708 4.413 0 1.17-.496 2.293-1.379 3.12a4.871 4.871 0 0 1-3.329 1.293z"/>
</svg>
