<svg xmlns="http://www.w3.org/2000/svg" width="130" height="154" viewBox="0 0 130 154">
    <defs>
        <linearGradient id="a" x1="0%" y1="46.072%" y2="69.48%">
            <stop offset="0%" stop-color="#0059BF"/>
            <stop offset="100%" stop-color="#01A2EF"/>
        </linearGradient>
    </defs>
    <g fill="none" fill-rule="evenodd">
        <path fill="url(#a)" d="M65 76l65 19.5v39L65 154 0 134.5v-39z"/>
        <g transform="translate(46)">
            <path fill="#04C9BF" d="M20.692 128.223l.067 5.898s11.405.606 13.412-.33c1.47-.686-1.427-2.769-6.458-2.915-2.923-.282-3.358-2.879-3.358-2.879l-3.663.226zM15.308 128.223l-.067 5.898s-11.405.606-13.412-.33c-1.47-.686 1.427-2.769 6.458-2.915 2.923-.282 3.358-2.879 3.358-2.879l3.663.226z"/>
            <path fill="#D4ECFF" d="M7.214 49.42V37.904H2C4.302 29.252 10.938 23 18.764 23c7.827 0 14.462 6.252 16.765 14.904h-5.214V67.71H7.214V49.42z"/>
            <path fill="#EF9B8E" d="M2.022 54v4.135H9s-3.587 2.986-6.335 2.986c-2.747 0-2.887-3.115-2.514-4.236C.525 55.765 2.022 54 2.022 54z"/>
            <path fill="#123D5C" d="M7 68h9.626v60.113H9.748z"/>
            <path fill="#266899" d="M9.748 126.966h6.871v1.438H9.748z"/>
            <path fill="#123D5C" d="M28.993 68h-9.626v60.113h6.878z"/>
            <path fill="#266899" d="M26.245 126.966h-6.871v1.438h6.871z"/>
            <path fill="#123D5C" d="M7 68h21.986l-.267 7.191H7.332z"/>
            <path fill="#EE8182" d="M13.064 16.312s-1.291-.868-1.029.29c.262 1.16 1.575 2.73 1.575 2.73l-.546-3.02zM25.546 16.312s1.291-.868 1.03.29c-.263 1.16-1.576 2.73-1.576 2.73"/>
            <path fill="#FFC0B7" d="M13 13h12.367v10.067H13z"/>
            <path fill="#703C18" d="M25.213 12.94s1.913-4.246-.47-6.804c-2.381-2.558-12.29-.971-11.308-5.312.981-4.34-5.383 9.772-.688 12.104 4.695 2.332 12.466.012 12.466.012zM25.33 30.63h.037V22H13v8.63h.038c.342 3.235 2.963 5.752 6.146 5.752 3.182 0 5.804-2.517 6.145-5.753z"/>
            <ellipse cx="16.687" cy="16.719" fill="#703C18" rx="1" ry="1"/>
            <ellipse cx="16.687" cy="16.719" fill="#703C18" rx="1" ry="1"/>
            <ellipse cx="21.687" cy="16.719" fill="#703C18" rx="1" ry="1"/>
            <path fill="#703C18" d="M12 11.591s.435 4.997 1.028 5.992c.592.995.022-6.583.022-6.583l-1.05.591zM26.297 11.591s-.435 4.997-1.028 5.992c-.592.995-.022-6.583-.022-6.583"/>
            <path fill="#00A6ED" d="M2 37h33v21.081H2z"/>
            <ellipse cx="18.704" cy="45.635" fill="#7BBCEE" rx="2.704" ry="2.635"/>
            <path fill="#EF9B8E" d="M34.978 54v4.135H28s3.587 2.986 6.335 2.986c2.747 0 2.887-3.115 2.514-4.236-.374-1.12-1.871-2.885-1.871-2.885z"/>
        </g>
    </g>
</svg>
