<svg xmlns="http://www.w3.org/2000/svg" width="85" height="90" viewBox="0 0 85 90">
    <defs>
        <linearGradient id="a" x1="100%" x2="0%" y1="100%" y2="0%">
            <stop offset="0%" stop-color="#0059BF"/>
            <stop offset="100%" stop-color="#01A2EF"/>
        </linearGradient>
        <linearGradient id="b" x1="0%" y1="46.072%" y2="46.072%">
            <stop offset="0%" stop-color="#004289"/>
            <stop offset="56.5%" stop-color="#0185DC"/>
            <stop offset="100%" stop-color="#019DEC"/>
        </linearGradient>
        <linearGradient id="c" x1="0%" y1="46.072%" y2="46.072%">
            <stop offset="0%" stop-color="#005EC2"/>
            <stop offset="56.5%" stop-color="#118AF8"/>
            <stop offset="100%" stop-color="#019DEC"/>
        </linearGradient>
        <linearGradient id="d" x1="100%" x2="0%" y1="50%" y2="50%">
            <stop offset="0%" stop-color="#16DE99"/>
            <stop offset="100%" stop-color="#00C8CE"/>
        </linearGradient>
        <linearGradient id="e" x1="158.021%" x2="-43.504%" y1="87.083%" y2="23.927%">
            <stop offset="0%" stop-color="#FFF" stop-opacity="0"/>
            <stop offset="100%" stop-color="#FFF" stop-opacity=".393"/>
        </linearGradient>
    </defs>
    <g fill="none" fill-rule="evenodd">
        <path fill="url(#a)" d="M1.268 68.693s-1.024-.107-.99-1.372C.31 66.056.35 29.903.35 29.903s-1.4-.195 2.737-2.572C7.224 24.953 48.43.858 48.43.858s2.048-1.716 2.011.693c-.037 2.409.226 37.31.226 37.31L1.268 68.694z"/>
        <path fill="url(#b)" d="M1.232 67.598l-.075 1.722 32.09 19.142s1.793 1.23 4.035-.027c2.241-1.256 47.252-27.769 47.252-27.769s.328.058.24-1.737c-.09-1.794-29.583-13.814-29.583-13.814L17.416 63.892 1.232 67.598z"/>
        <path fill="url(#c)" d="M1.267 67.365s-.526.56 1.562 1.833 30.346 17.996 30.346 17.996 1.62 1.428 4.55-.214c2.927-1.643 46.34-27.161 46.34-27.161s1.4-.654.289-1.468S51.382 39.06 51.382 39.06s-.51-.863-2.09.172C47.713 40.267 1.267 67.365 1.267 67.365z"/>
        <path fill="url(#d)" d="M2.132 30.167V64.08l46.545-27.284-.046-33.441z"/>
        <path fill="#000" fill-opacity=".1" d="M6.257 67.836l44.051-26.115 16.305 9.596-43.962 26.105z"/>
        <path fill="url(#e)" d="M34.422 71.426l13.943 8.238L70.744 66.52l-13.972-8.264z"/>
    </g>
</svg>
