<svg xmlns="http://www.w3.org/2000/svg" width="20" height="30" viewBox="0 0 20 30">
    <g fill="#83CAFF" fill-rule="nonzero">
        <path d="M18.933 13.866a.83.83 0 0 0 .083-.24 9.489 9.489 0 0 0 .706-3.65C19.615 4.508 15.3.133 10.014.133 4.727.133.412 4.508.306 9.976a9.489 9.489 0 0 0 .706 3.65.83.83 0 0 0 .082.24l.169.308c.094.191.196.378.306.56L9.333 28.99c.14.254.4.411.683.411a.78.78 0 0 0 .682-.411l7.765-14.256c.106-.182.212-.369.306-.56l.164-.308zM10.012 1.558c4.494.004 8.137 3.772 8.14 8.422a7.597 7.597 0 0 1-.823 3.489h.024l-7.341 13.468L2.675 13.47h.023a7.597 7.597 0 0 1-.823-3.49c.004-4.647 3.644-8.414 8.137-8.421z"/>
        <path d="M12.612 13.469c1.945-1.335 2.65-3.943 1.657-6.128-.992-2.185-3.383-3.287-5.618-2.59-2.234.697-3.637 2.984-3.296 5.372.341 2.388 2.323 4.158 4.657 4.157.925 0 1.829-.283 2.6-.811zm-2.6-7.335c1.732 0 3.137 1.453 3.137 3.245 0 1.793-1.405 3.246-3.137 3.246-1.733 0-3.137-1.453-3.137-3.246 0-1.792 1.404-3.245 3.137-3.245z"/>
    </g>
</svg>
