
<svg xmlns="http://www.w3.org/2000/svg" width="1440" height="556" viewBox="0 0 1440 556">
    <g fill="none" fill-rule="evenodd" transform="translate(-59 -380)">
        <g opacity=".3" transform="translate(475 203)">
            <path stroke="#31A7EA" d="M693.477 129.015l-384.593 91.801-32.335-108.093m32.335 108.093L.475 179.378l604.796 188.689m-456.415 8.017l231.884 180.32L382.95.856 83.909 474.916"/>
            <path stroke="#33AAEB" d="M608.721 368.263l-298.717-147.07L57.5 377.604l161.37-272.598 474.394 23.435z"/>
            <path stroke="#33AAEB" d="M387.057 6.502l220.655 361.68-227.168 191.003 227.17-190.425-549.737 5.863M694.5 127.5L381.324 371.792M83.704 474.618L380.995 561.3l-297.29-86.682z"/>
            <ellipse cx="380.303" cy="558.354" fill="#0188DE" rx="7.657" ry="7.646"/>
            <ellipse cx="308.833" cy="220.911" fill="#0188DE" rx="7.657" ry="7.646"/>
            <ellipse cx="381.324" cy="372.812" fill="#0188DE" rx="7.657" ry="7.646"/>
            <ellipse cx="58.121" cy="375.87" fill="#0188DE" rx="7.657" ry="7.646"/>
            <ellipse cx="84.213" cy="474.758" fill="#0188DE" rx="7.657" ry="7.646"/>
        </g>
        <g opacity=".3" transform="scale(-1 1) rotate(5 -7040.784 -15885.356)">
            <path stroke="#31A7EA" d="M571.155 161.794l-316.27 59.022-32.336-108.093m32.335 108.093L4.09 219.268l178.803 58.21m145.617-3.504L328.95.856 154.856 279.931"/>
            <path stroke="#33AAEB" d="M516.334 272.378l-260.33-51.184L57.14 294.086l107.73-189.08 407.5 53.242zM573.028 160.784L435.584 274.285"/>
            <ellipse cx="254.833" cy="220.911" fill="#0188DE" rx="7.657" ry="7.646"/>
            <ellipse cx="222.161" cy="112.848" fill="#0188DE" rx="7.657" ry="7.646"/>
            <ellipse cx="7.751" cy="217.853" fill="#0188DE" rx="7.657" ry="7.646"/>
            <ellipse cx="571.342" cy="159.744" fill="#0188DE" rx="7.657" ry="7.646"/>
        </g>
        <g opacity=".3" transform="matrix(0 1 1 0 0 319)">
            <path stroke="#31A7EA" d="M602.155 161.794l-316.27 59.022-32.336-108.093m32.335 108.093L35.09 219.268l547.181 148.799m-456.415 8.017l231.884 180.32L359.95.856 60.909 474.916"/>
            <path stroke="#33AAEB" d="M585.721 368.263l-298.717-147.07L6.376 376.698 195.87 105.005l407.5 53.243z"/>
            <path stroke="#33AAEB" d="M364.057 6.502l220.655 361.68-227.168 191.003 227.17-190.425-578.388 8.636M604.028 160.784L358.324 371.792M60.704 474.618L357.995 561.3l-297.29-86.682z"/>
            <ellipse cx="357.303" cy="558.354" fill="#0188DE" rx="7.657" ry="7.646"/>
            <ellipse cx="285.833" cy="220.911" fill="#0188DE" rx="7.657" ry="7.646"/>
            <ellipse cx="253.161" cy="112.848" fill="#0188DE" rx="7.657" ry="7.646"/>
            <ellipse cx="602.342" cy="159.744" fill="#0188DE" rx="7.657" ry="7.646"/>
            <ellipse cx="61.213" cy="474.758" fill="#0188DE" rx="7.657" ry="7.646"/>
        </g>
        <g opacity=".3" transform="scale(-1 1) rotate(45 -702.168 -1695.182)">
            <path stroke="#31A7EA" d="M631.718 178.885l-345.834 41.931-32.335-108.093m32.335 108.093L35.09 219.268l547.181 148.799m-456.415 8.017l231.884 180.32L359.95.856 60.909 474.916"/>
            <path stroke="#33AAEB" d="M585.721 368.263l-298.717-147.07L6.376 376.698 195.87 105.005l435.14 72.482z"/>
            <path stroke="#33AAEB" d="M364.057 6.502l220.655 361.68-227.168 191.003 227.17-190.425-578.388 8.636M630.976 180.075L358.324 371.792M60.704 474.618L357.995 561.3l-297.29-86.682z"/>
            <ellipse cx="358.324" cy="372.812" fill="#0188DE" rx="7.657" ry="7.646"/>
            <ellipse cx="586.007" cy="368.734" fill="#0188DE" rx="7.657" ry="7.646"/>
        </g>
        <g opacity=".3" transform="matrix(-1 0 0 1 2032 523)">
            <path stroke="#3DB5F8" d="M602.155 161.794l-316.27 59.022-32.336-108.093m32.335 108.093L35.09 219.268l547.181 148.799m-456.415 8.017l231.884 180.32L359.95.856 60.909 474.916"/>
            <path stroke="#3DB5F8" d="M585.721 368.263l-298.717-147.07L6.376 376.698 195.87 105.005l407.5 53.243z"/>
            <path stroke="#3DB5F8" d="M364.057 6.502l220.655 361.68-227.168 191.003 227.17-190.425-578.388 8.636M604.028 160.784L358.324 371.792"/>
            <ellipse cx="602.342" cy="159.744" fill="#019AEA" rx="7.657" ry="7.646"/>
        </g>
        <g opacity=".3" transform="translate(398 723)">
            <path stroke="#31A7EA" d="M400.66 149.108l-253.78 36.384-21.33-72.769M231.95.856L115.01 185.492"/>
            <path stroke="#33AAEB" d="M.194 190.996l67.677-85.99 407.5 53.242M236.057 6.502l91.2 156.358"/>
            <ellipse cx="125.161" cy="112.848" fill="#0188DE" rx="7.657" ry="7.646"/>
        </g>
        <ellipse cx="1084.006" cy="571.734" fill="#0188DE" rx="7.657" ry="7.646"/>
    </g>
</svg>
