<svg xmlns="http://www.w3.org/2000/svg" width="20" height="32" viewBox="0 0 20 32">
    <g fill="#83CAFF" fill-rule="nonzero">
        <path d="M16.968.08H2.756A2.787 2.787 0 0 0 .844.83 2.466 2.466 0 0 0 .06 2.635v26.73c.002 1.402 1.21 2.537 2.7 2.537h14.208c1.49 0 2.698-1.135 2.7-2.537V2.635A2.466 2.466 0 0 0 18.883.83a2.787 2.787 0 0 0-1.915-.75zM2.756 1.584h14.212c.295 0 .577.111.784.308.206.198.32.465.316.742v1.182h-16.4V2.635c-.004-.275.108-.54.312-.738.204-.197.484-.31.776-.312zm15.308 3.723v18.338h-16.4V5.304l16.4.004zm-1.096 25.11H2.756a1.135 1.135 0 0 1-.782-.31 1.004 1.004 0 0 1-.314-.743v-4.213h16.4v4.213c.004.276-.109.542-.314.739-.205.197-.485.31-.778.311v.004z"/>
        <ellipse cx="9.864" cy="27.674" rx="1.5" ry="1.412"/>
    </g>
</svg>
